<?xml version="1.0" encoding="iso-8859-1"?>
<svg version="1.1" xmlns="http://www.w3.org/2000/svg" xmlns:xlink="http://www.w3.org/1999/xlink" fill="#fff" viewBox="0 0 256 256" width="52" height="52"><path d="M230.91 171.97a8 8 0 0 1-2.879 10.94l-96 56a7.999 7.999 0 0 1-8.062 0l-96-56a8 8 0 1 1 8.062-13.82L128 222.738l91.969-53.648a8 8 0 0 1 10.941 2.88Zm-10.941-50.88L128 174.738 36.03 121.09a8 8 0 1 0-8.06 13.82l96 56a7.999 7.999 0 0 0 8.06 0l96.001-56a8 8 0 0 0-8.062-13.82ZM24 80a8 8 0 0 1 3.97-6.91l96-56a7.999 7.999 0 0 1 8.06 0l96.001 56a8 8 0 0 1 0 13.82l-96 56a7.999 7.999 0 0 1-8.062 0l-96-56A8 8 0 0 1 24 80Zm23.877 0L128 126.738 208.123 80 128 33.262Z"></path></svg>