<?xml version="1.0" encoding="iso-8859-1"?>
<svg  version="1.1" xmlns="http://www.w3.org/2000/svg" xmlns:xlink="http://www.w3.org/1999/xlink" fill="#fff" viewBox="0 0 256 256" width="52" height="52"><path d="M24 96v72a8.01 8.01 0 0 0 8 8h80a8 8 0 0 1 0 16H96v16h16a8 8 0 0 1 0 16H64a8 8 0 0 1 0-16h16v-16H32a24.027 24.027 0 0 1-24-24V96a24.027 24.027 0 0 1 24-24h80a8 8 0 0 1 0 16H32a8.01 8.01 0 0 0-8 8Zm184-32h-32a8 8 0 0 0 0 16h32a8 8 0 0 0 0-16Zm0 32h-32a8 8 0 0 0 0 16h32a8 8 0 0 0 0-16Zm40-48v160a16.018 16.018 0 0 1-16 16h-80a16.018 16.018 0 0 1-16-16V48a16.018 16.018 0 0 1 16-16h80a16.018 16.018 0 0 1 16 16Zm-15.99 160L232 48h-80v160h80ZM192 168a12 12 0 1 0 12 12 12.013 12.013 0 0 0-12-12Z"></path></svg>