<svg id="_лой_1" data-name="‘лой_1" xmlns="http://www.w3.org/2000/svg" viewBox="0 0 3000 2000">
  
  <g>
    <path d="M2676.34,1785c-149.31,0-2324.3.53-2325.56-3.36l-.21-.49a2.55,2.55,0,0,1-.22-.73c-.83-1.94-335.11-548.75,184.58-929.4C738.27,702.09,522.2,603.76,683.9,438c185.82-190.54,388.62,20.24,595.26-66.16,36.51-15.25,73.14-39.8,109.82-77.47a408.07,408.07,0,0,1,67.49-55.71q5.57-3.69,11.25-7.2a453.43,453.43,0,0,1,45-24.3q15.62-7.31,31.8-13.53h0a524.46,524.46,0,0,1,52.71-17.06,598.87,598.87,0,0,1,78.61-15.33q17.53-2.26,35.35-3.59C1942.11,140.36,2202,237.42,2336,379.29c27,28.56,149.75,176.38,53,379.55-61.1,128.27,194.85,250.78,285.8,397.26C2906.07,1528.52,2678.44,1780.15,2676.34,1785Z" style="fill: #ebf3fa"/>
    <g style="opacity: 0.8">
      <path d="M1337.74,795.72a329.46,329.46,0,0,1-5.3,59,325.51,325.51,0,0,1-51.67,125.61c-59,86.23-158.09,142.82-270.44,142.82-133.64,0-248.58-80.06-299.46-194.85a321.75,321.75,0,0,1-16.67-47.09,329.46,329.46,0,0,1-3.85-155.13c0-.26.11-.51.16-.77A328.28,328.28,0,0,1,818.3,530.51q10.1-7.32,20.78-13.88a325.6,325.6,0,0,1,171.25-48.33q12.49,0,24.75.93a325.24,325.24,0,0,1,162.15,57.64h0a328.77,328.77,0,0,1,89.81,93.77q7.51,11.88,14,24.42a325.87,325.87,0,0,1,36.64,150.66Z" style="fill: #d7e5ff"/>
      <g>
        <path d="M899.1,649.16C886,669.85,904.55,705.78,865.36,696S802.2,681.82,800,703.59s29.4,21.79,29.4,44.65-14.16,30.43-35.93,19.57-28-26.65-53.36-16.85-40,3.26-45.73-16.34a28.56,28.56,0,0,0-4.06-8.57c0-.26.11-.51.16-.77A328.28,328.28,0,0,1,818.3,530.51q10.1-7.32,20.78-13.88c10.21.37,22.41,4.24,32.81,17.11,22.86,28.32,38.1,14.16,32.66,46.83s3.27,37,21.77,35.93,40.29-1.1,42.47,13.06S912.16,628.47,899.1,649.16Z" style="fill: #aec3ff"/>
        <path d="M901.38,800.36s-19.75,23-36.78,9.78S852.72,788.69,827.78,797s-35.91-5.44-48.69,4.95-2.41,11.69-11.25,33.72-27.11,25.56-13,47.55,40.39,10.68,54.23,22.31,9.32,23,26.59,27.75,33.78-12.08,34.12,8.78-6.33,41.24,15.15,60.64,17.45,23.78,39.53,33.23,48.47.93,45.12-12.34-31.81-15.94-32.37-30.92,14.57-13.73,8.51-33,10.87-29.66,5.15-42.12-38.35-16.71-34.55-29.26,33.31-1.91,34.92-28.44-16.31-36-13.66-61.86S904.41,784.46,901.38,800.36Z" style="fill: #aec3ff"/>
        <path d="M1337.74,795.72a329.46,329.46,0,0,1-5.3,59,325.51,325.51,0,0,1-51.67,125.61,37.38,37.38,0,0,1-26.18-.7c-40.83-16.33-10.62-60.43,5.72-82.48s-25.32-12.24-55.53-32.66,3.26-75.13-27.77-66.14-68.59,20.41-86.55-9.8,16.33-35.12.81-60.43,9-40,40-42.46,26.94-24.5,65.32-27.77,37.57,45.73,80,42.47,40.55,6.53,40.55,6.53a19.77,19.77,0,0,1,8.87,1.86A328,328,0,0,1,1337.74,795.72Z" style="fill: #aec3ff"/>
        <path d="M1301.1,645.06c-35.31,17.18-49.48-29.54-79.66-15.5-30.43,14.16-25.1-13.06-49-30.49s-71.86,14.16-69.68-13.07,38.1-19.59,45.72-41.36,42.47-16.34,42.47-16.34a23.37,23.37,0,0,1,6.33-1.43s0,0,0,0a328.77,328.77,0,0,1,89.81,93.77Q1294.57,632.52,1301.1,645.06Z" style="fill: #aec3ff"/>
        <path d="M1003.62,551.17s18.51-26.71-10.88-34.59-28.86,2.44-51.72,0-31.85,15.26-14.7,34.59,31,56.41,46.55,36.64S985.39,553.07,1003.62,551.17Z" style="fill: #aec3ff"/>
      </g>
    </g>
    <g>
      <path d="M1404.32,1148.54l-50.15,596.27s-5.26,36.15,21.63,36.21c44.21.1,220,0,220,0s-33.27-7.52-32.87-24.45c.47-20,58.61-613.67,58.61-613.67Z" style="fill: #7599ea"/>
      <path d="M1612.38,1770.44c-8.7,0-178.91.31-222-.24-18.76-.23-22.05-16.68-22.21-27.32a53,53,0,0,1,.57-8.88l1.31-15.5,3.32-39.5,2.94-34.9,3.77-44.84,3.18-37.85,35.63-423.7,217.25-5.63s-24.48,248.46-41.8,429.33c-1.94,20.15-3.78,39.47-5.48,57.51q-.83,8.64-1.59,16.87c-1.61,17.11-3.08,32.82-4.35,46.7-.68,7.31-1.3,14.11-1.86,20.33-2.21,24.39-3.51,40-3.52,42.93a24.61,24.61,0,0,0,.42,4.83C1581.57,1769.58,1609.11,1770.44,1612.38,1770.44Z" style="fill: #90aff4"/>
      <polygon points="876.7 824.07 998.86 1314.73 1015.58 1381.92 1072.47 1610.46 2129.44 1610.46 1919.74 824.07 876.7 824.07" style="fill: #aec3ff"/>
      <polygon points="876.7 824.07 859.77 829.71 1049.97 1627.53 1072.47 1610.46 876.7 824.07" style="fill: #90aff4"/>
      <polygon points="1049.97 1627.53 2100.43 1627.53 2129.44 1610.46 1072.47 1610.46 1049.97 1627.53" style="fill: #7599ea"/>
      <rect x="1418.86" y="1770.44" width="227.44" height="10.81" transform="translate(3065.16 3551.69) rotate(180)" style="fill: #aec3ff"/>
      <polygon points="1588.48 1627.53 1587.31 1635.79 1373.41 1679 1376.35 1644.1 1377.74 1627.53 1588.48 1627.53" style="fill: #5888dd"/>
      <path d="M1612.38,1770.44c-8.7,0-178.91.31-222-.24-18.76-.23-22.05-16.68-22.21-27.32l212.89-40.06c-2.21,24.39-3.51,40-3.52,42.93a24.61,24.61,0,0,0,.42,4.83C1581.57,1769.58,1609.11,1770.44,1612.38,1770.44Z" style="fill: #5888dd;opacity: 0.4"/>
      <polygon points="876.7 824.07 1919.74 824.07 2088.98 1456.08 1034.04 1456.08 876.7 824.07" style="fill: #c2d5ff"/>
      <polygon points="2039.78 1428.69 1063.18 1428.69 1028.28 1289.67 1014.78 1235.87 1009.27 1213.94 973.4 1071.07 971.54 1063.63 952.59 988.11 944.1 954.32 936.87 925.49 919.9 857.92 1882.43 857.92 1901.06 925.49 1909 954.32 1918.32 988.11 1979.69 1210.72 1979.69 1210.73 1984.89 1229.59 1987.31 1238.35 2029.68 1392.03 2039.78 1428.69" style="fill: #739af0"/>
      <polygon points="1901.06 925.5 936.87 925.5 919.91 857.92 1882.43 857.92 1901.06 925.5" style="fill: #607cf4"/>
      <g>
        <path d="M959.73,888.46c-1.17-4.66,1.67-8.45,6.34-8.45a11.55,11.55,0,0,1,10.55,8.45c1.16,4.67-1.67,8.45-6.34,8.45A11.53,11.53,0,0,1,959.73,888.46Z" style="fill: #e9f3fe"/>
        <path d="M987.79,888.46c-1.16-4.66,1.68-8.45,6.35-8.45a11.55,11.55,0,0,1,10.55,8.45c1.16,4.67-1.68,8.45-6.34,8.45A11.55,11.55,0,0,1,987.79,888.46Z" style="fill: #e9f3fe"/>
        <path d="M1018,888.46c-1.17-4.66,1.67-8.45,6.34-8.45a11.55,11.55,0,0,1,10.55,8.45c1.17,4.67-1.67,8.45-6.34,8.45A11.53,11.53,0,0,1,1018,888.46Z" style="fill: #e9f3fe"/>
      </g>
      <polygon points="1430.32 1456.08 1072.83 1612.3 1034.04 1456.08 1430.32 1456.08" style="fill: #90aff4;opacity: 0.5"/>
    </g>
    <g>
      <g>
        <path d="M1119.47,660.36c-17.23,6.44-28.35,21.34-28.35,37.77v364.49c0,74.57,35.4,144.41,94.74,186.92L1400,1386.76a45.26,45.26,0,0,0,47.87,0L1662,1249.54c59.33-42.51,94.73-112.35,94.73-186.92V699.1c0-16.91-11.82-32.13-29.75-38.28-260.1-89-364.37-91.42-607.47-.46Z" style="fill: #f99746"/>
        <path d="M1726.94,660.82c-126.61-43.34-216.29-66.09-303-67.59V1393.6a44.58,44.58,0,0,0,23.93-6.84L1662,1249.54c59.33-42.51,94.73-112.35,94.73-186.92V699.09c0-16.9-11.82-32.12-29.75-38.27Z" style="fill: #f78248"/>
      </g>
      <g>
        <path d="M1445.71,985.33H1397a79.3,79.3,0,0,1-79.21-79.2v-9.47A79.3,79.3,0,0,1,1397,817.44h48.7a79.3,79.3,0,0,1,79.21,79.22v9.47A79.29,79.29,0,0,1,1445.71,985.33ZM1397,849.11a47.6,47.6,0,0,0-47.54,47.55v9.47A47.59,47.59,0,0,0,1397,953.66h48.7a47.58,47.58,0,0,0,47.54-47.53v-9.47a47.59,47.59,0,0,0-47.54-47.55Z" style="fill: #ffdaa4"/>
        <path d="M1288.24,920h263.15a37.33,37.33,0,0,1,37.33,37.33v126.83a122.41,122.41,0,0,1-122.41,122.41h-76.93a130.3,130.3,0,0,1-130.3-130.3V949.14A29.14,29.14,0,0,1,1288.24,920Z" style="fill: #ffdaa4"/>
        <g>
          <circle cx="1423.91" cy="1005.99" r="42.98" transform="translate(-252.72 528.03) rotate(-19.33)" style="fill: #f78248"/>
          <path d="M1423.91,1026.05h0a9.34,9.34,0,0,1,9.31,9.31V1107a9.34,9.34,0,0,1-9.31,9.31h0a9.35,9.35,0,0,1-9.32-9.31v-71.64A9.35,9.35,0,0,1,1423.91,1026.05Z" style="fill: #f78248"/>
        </g>
      </g>
      <g>
        <path d="M1271.81,730.68c0-21.09,16.42-38.37,38.9-38.37,13.35,0,21.41,3.61,29.14,10.18l-10.28,12.4c-5.72-4.77-10.81-7.53-19.4-7.53-11.87,0-21.3,10.5-21.3,23.32,0,13.57,9.33,23.53,22.47,23.53,5.94,0,11.24-1.48,15.37-4.45v-10.6h-16.43v-14.1h32.22v32.23a48.17,48.17,0,0,1-31.69,11.76C1287.7,769.05,1271.81,752.83,1271.81,730.68Z" style="fill: #ffdaa4"/>
        <path d="M1358.19,693.58h28.94c23.32,0,39.43,16,39.43,37.1,0,20.88-16.11,37.1-39.43,37.1h-28.94Zm28.94,59.47c13.35,0,22.36-9,22.36-22.37,0-13.14-9-22.36-22.36-22.36h-12.62v44.73Z" style="fill: #ffdaa4"/>
        <path d="M1441.08,693.58h30.31c17.7,0,28.41,10.5,28.41,25.87,0,17.17-13.36,26.07-30,26.07h-12.4v22.26h-16.32ZM1470.33,731c8.16,0,12.93-4.88,12.93-11.45,0-7.31-5.09-11.23-13.25-11.23H1457.4V731Z" style="fill: #ffdaa4"/>
        <path d="M1511.88,693.58h33.92c9.43,0,16.75,2.65,21.62,7.53,4.14,4.13,6.36,10,6.36,17.17,0,12-6.46,19.5-15.9,23l18.13,26.5h-19.08L1540.82,744h-12.61v23.74h-16.33Zm32.86,36c8,0,12.51-4.24,12.51-10.7,0-7-4.88-10.6-12.83-10.6h-16.21v21.3Z" style="fill: #ffdaa4"/>
      </g>
    </g>
    <g>
      <g>
        <path d="M1912.59,441.59c-4.71,1.76-7.76,5.84-7.76,10.34v99.76a62.89,62.89,0,0,0,25.93,51.16l58.61,37.55a12.38,12.38,0,0,0,13.1,0l58.6-37.55A62.89,62.89,0,0,0,2087,551.69v-99.5c0-4.63-3.24-8.79-8.15-10.47-71.18-24.38-99.72-25-166.26-.13Z" style="fill: #aec3ff"/>
        <path d="M2078.85,441.72c-34.65-11.87-59.19-18.09-82.93-18.5V642.28a12.22,12.22,0,0,0,6.55-1.88l58.6-37.55A62.89,62.89,0,0,0,2087,551.69v-99.5c0-4.63-3.24-8.79-8.15-10.47Z" style="fill: #5888dd;opacity: 0.4"/>
      </g>
      <g>
        <polygon points="2006.14 317.54 2029.15 320.57 2012.75 336.99 2016.98 359.81 1996.3 349.29 1975.91 360.37 1979.52 337.44 1962.68 321.47 1985.6 317.82 1995.59 296.87 2006.14 317.54" style="fill: #f99746"/>
        <polygon points="2006.14 714.02 2029.15 717.05 2012.75 733.47 2016.98 756.29 1996.3 745.77 1975.91 756.85 1979.52 733.92 1962.68 717.95 1985.6 714.3 1995.59 693.35 2006.14 714.02" style="fill: #f99746"/>
        <polygon points="1836.7 414.9 1859.71 417.93 1843.32 434.35 1847.55 457.17 1826.86 446.65 1806.47 457.73 1810.08 434.8 1793.25 418.83 1816.16 415.18 1826.15 394.24 1836.7 414.9" style="fill: #f99746"/>
        <polygon points="2177.92 414.9 2200.93 417.93 2184.54 434.35 2188.77 457.17 2168.08 446.65 2147.69 457.73 2151.3 434.8 2134.47 418.83 2157.39 415.18 2167.37 394.24 2177.92 414.9" style="fill: #f99746"/>
        <polygon points="1836.7 617.84 1859.71 620.86 1843.32 637.28 1847.55 660.1 1826.86 649.58 1806.47 660.66 1810.08 637.74 1793.25 621.76 1816.16 618.12 1826.15 597.17 1836.7 617.84" style="fill: #f99746"/>
        <polygon points="2177.92 617.84 2200.93 620.86 2184.54 637.28 2188.77 660.1 2168.08 649.58 2147.69 660.66 2151.3 637.74 2134.47 621.76 2157.39 618.12 2167.37 597.17 2177.92 617.84" style="fill: #f99746"/>
        <polygon points="1910.16 343.74 1933.17 346.76 1916.77 363.19 1921 386 1900.32 375.49 1879.93 386.56 1883.54 363.64 1866.7 347.67 1889.62 344.02 1899.61 323.07 1910.16 343.74" style="fill: #f99746"/>
        <polygon points="2107.13 343.74 2130.14 346.76 2113.74 363.19 2117.97 386 2097.29 375.49 2076.89 386.56 2080.51 363.64 2063.67 347.67 2086.59 344.02 2096.57 323.07 2107.13 343.74" style="fill: #f99746"/>
        <polygon points="1910.16 688.54 1933.17 691.57 1916.77 707.99 1921 730.81 1900.32 720.29 1879.93 731.37 1883.54 708.44 1866.7 692.47 1889.62 688.82 1899.61 667.87 1910.16 688.54" style="fill: #f99746"/>
        <polygon points="2107.13 688.54 2130.14 691.57 2113.74 707.99 2117.97 730.81 2097.29 720.29 2076.89 731.37 2080.51 708.44 2063.67 692.47 2086.59 688.82 2096.57 667.87 2107.13 688.54" style="fill: #f99746"/>
        <polygon points="1809.59 521.65 1832.6 524.67 1816.21 541.1 1820.44 563.91 1799.75 553.39 1779.36 564.47 1782.97 541.55 1766.14 525.58 1789.06 521.93 1799.04 500.98 1809.59 521.65" style="fill: #f99746"/>
        <polygon points="2211.16 521.65 2234.16 524.67 2217.77 541.1 2222 563.91 2201.32 553.39 2180.93 564.47 2184.54 541.55 2167.7 525.58 2190.62 521.93 2200.6 500.98 2211.16 521.65" style="fill: #f99746"/>
      </g>
    </g>
    <g>
      <g>
        <g>
          <g>
            <path d="M573.52,1075.89a2.17,2.17,0,1,1-3.08,0A2.17,2.17,0,0,1,573.52,1075.89Z" style="fill: #d5e5fb"/>
            <path d="M566.44,1083a2.17,2.17,0,1,1-3.08,0A2.18,2.18,0,0,1,566.44,1083Z" style="fill: #d5e5fb"/>
            <path d="M556.19,1090.29a2.17,2.17,0,1,1,0,3.08A2.17,2.17,0,0,1,556.19,1090.29Z" style="fill: #d5e5fb"/>
          </g>
          <g>
            <path d="M552.09,1097.52a2.17,2.17,0,1,1-3.08,0A2.17,2.17,0,0,1,552.09,1097.52Z" style="fill: #d5e5fb"/>
            <path d="M545,1104.67a2.17,2.17,0,1,1-3.08,0A2.17,2.17,0,0,1,545,1104.67Z" style="fill: #d5e5fb"/>
            <path d="M534.76,1111.92a2.17,2.17,0,1,1,0,3.08A2.17,2.17,0,0,1,534.76,1111.92Z" style="fill: #d5e5fb"/>
          </g>
        </g>
        <g>
          <g>
            <path d="M530.94,1118.86a2.17,2.17,0,1,1-3.07,0A2.18,2.18,0,0,1,530.94,1118.86Z" style="fill: #d5e5fb"/>
            <path d="M523.86,1126a2.17,2.17,0,1,1-3.07,0A2.17,2.17,0,0,1,523.86,1126Z" style="fill: #d5e5fb"/>
            <path d="M513.61,1133.26a2.18,2.18,0,1,1,0,3.08A2.19,2.19,0,0,1,513.61,1133.26Z" style="fill: #d5e5fb"/>
          </g>
          <g>
            <path d="M509.51,1140.49a2.17,2.17,0,1,1-3.07,0A2.18,2.18,0,0,1,509.51,1140.49Z" style="fill: #d5e5fb"/>
            <path d="M502.43,1147.64a2.17,2.17,0,1,1-3.07,0A2.17,2.17,0,0,1,502.43,1147.64Z" style="fill: #d5e5fb"/>
            <path d="M492.18,1154.9a2.17,2.17,0,1,1,0,3.07A2.18,2.18,0,0,1,492.18,1154.9Z" style="fill: #d5e5fb"/>
          </g>
        </g>
      </g>
      <g>
        <circle cx="624.61" cy="1027.84" r="47.42" transform="matrix(0.16, -0.99, 0.99, 0.16, -491.1, 1477.03)" style="fill: #c6dcf7"/>
        <g>
          <path d="M609.39,1008.82A15.22,15.22,0,1,1,624.61,1024,15.22,15.22,0,0,1,609.39,1008.82Z" style="fill: #ebf3fa"/>
          <path d="M624.61,1024A26.63,26.63,0,0,0,598,1050.67h53.26A26.63,26.63,0,0,0,624.61,1024Z" style="fill: #ebf3fa"/>
        </g>
      </g>
      <g>
        <path d="M452.93,1174.17l-1.75-4.35a12.37,12.37,0,0,0-11.45-7.72H407.32v108.39H541.41v-87.82H465.53A13.59,13.59,0,0,1,452.93,1174.17Z" style="fill: #c6dcf7"/>
        <path d="M494.42,1211.58h-4.48a12.61,12.61,0,0,0,.2-2.24v-1.53A12.83,12.83,0,0,0,477.33,1195h-7.88a12.82,12.82,0,0,0-12.8,12.81v1.53a12.62,12.62,0,0,0,.19,2.24h-5a4.72,4.72,0,0,0-4.71,4.72v20.56a21.07,21.07,0,0,0,21.07,21.07h12.44a19.79,19.79,0,0,0,19.8-19.8v-20.51A6,6,0,0,0,494.42,1211.58Zm-19.11,20.7v9.55a1.51,1.51,0,0,1-3,0v-9.55a7,7,0,1,1,3,0Zm9.71-22.94a7.55,7.55,0,0,1-.34,2.24H462.1a7.55,7.55,0,0,1-.34-2.24v-1.53a7.7,7.7,0,0,1,7.69-7.69h7.88a7.7,7.7,0,0,1,7.69,7.69Z" style="fill: #ebf3fa"/>
      </g>
    </g>
    <g>
      <g>
        <path d="M845.85,1165.75s2.53-27.6-28.3-27.6c0,0,9.34,2.53,14.17,7.6,0,0-19.66-11.54-41.06,6.2s-8.11,62.23-14.61,70.67-31.85,10.14-28.76,37.45,80.43,61.52,75.47,84.12c0,0,30.3-44.55,8.63-64.88,0,0,10.56,10,11.64,21.78,0,0,2.87-23.09-11.83-30.48-13-6.53-23.65-30.43-22.52-34.7S845.85,1165.75,845.85,1165.75Z" style="fill: #2c3a64"/>
        <path d="M815.49,1298.23s23,95.29,45.65,114.34c13.59,11.45,54,37.73,54,37.73l-16.81,6.1s-56.05-18.93-68.6-33.69-46.9-88.67-46.9-88.67Z" style="fill: #ffb27d"/>
        <path d="M948.48,1485.12l-5.41-13.4a38,38,0,0,0-35.25-23.78H808V1781.8H1221V1511.3H987.28A41.85,41.85,0,0,1,948.48,1485.12Z" style="fill: #f99746"/>
        <path d="M599,1465.64c.2.36.41.74.63,1.12,5,8.76,16.6,30.23,29.34,53.72,6,11.14,12.33,22.74,18.31,33.66,10.31,18.84,19.69,35.62,25.16,44.49s9.67,15.35,11.32,17.88h0a4.26,4.26,0,0,1,.54,2.62,136.77,136.77,0,0,0,.36,23.62c7.68,76.43,59.22,117.38,59.22,117.38l15.32,2.27s-21.68-80.34-28.07-125.75c-1.08-7.7-1.55-13.94-1.17-18,1.13-11.83-1-29.2-5-49.15-7.08-35.44-20-78.94-31.33-113.76-.72-2.23-22.27-80.18-22.27-80.18-18.08,15.81-84.05,22.33-84.05,22.33S576.21,1425.09,599,1465.64Z" style="fill: #2f539b"/>
        <path d="M791.4,1781.8H727.45s-1.54-9.75,1.8-17.15c3.21-7.09,7.77-7.32.59-18.44,4.06,4.19,17.12,5.92,26.37,4.67,1.13,1.84,7.3,14.16,11.09,16.88C771.48,1770.76,790.11,1769.69,791.4,1781.8Z" style="fill: #233862"/>
        <path d="M599,1465.64c.2.36.41.74.63,1.12,5,8.76,32.3,59.11,45,82.6-14.75-60.72-4.49-121.43-4.49-121.43Z" style="fill: #233862"/>
        <path d="M837.12,1161.87c.42-1.69-36.52,16.69-38.39,18.77-17.33,19.22-12.39,44.3-2.48,44.54,6.36.15,5.13,10.73,5.13,10.73l70.83-30S863.69,1156.21,837.12,1161.87Z" style="fill: #2c3a64"/>
        <path d="M813.32,1283.92s10.78,21.54,9.43,39c0,0-13,20.52-46.7,25.71C776.05,1348.64,805,1283.91,813.32,1283.92Z" style="fill: #739af0"/>
        <path d="M648.87,1402.66l.22-12c-23.83,3-82.17-28.47-82.17-28.47s-24.93,16.58-28.34,63.93c-1.67,23.12-12.21,120.87-13.37,150.06-.43,10.58-.57,18.13-.62,21.14t0,0a4.08,4.08,0,0,1-1,2.46,136.3,136.3,0,0,0-12.91,19.8c-36.37,67.65-17.35,159.59-17.35,159.59l8.45-2.15s30.74-95.3,50.84-136.53c3.41-7,6.51-12.43,9.1-15.58,7.56-9.17,15.52-24.76,23.38-43.51C599.93,1546,648.87,1402.66,648.87,1402.66Z" style="fill: #2f539b"/>
        <path d="M544.18,1781.8H480.23s-1.54-9.75,1.8-17.15c3.2-7.09,8.22-10.32,7-18.9,4.06,4.18,10.68,8.87,19.93,7.63,1.13,1.83,7.31,11.66,11.09,14.38C524.25,1770.76,542.89,1769.69,544.18,1781.8Z" style="fill: #233862"/>
        <path d="M771.73,1362.38c-8.59,1.46,1.4,8.29-10.41,9.57-16.82,1.84-34.18,3.09-43.28,6.72-3.31,1.33-5.53,3-6.22,5-4,11.85-28.91,32.22-28.91,32.22-111.36-5.07-118.53-54.7-118.53-54.7,72.27-70.19,133.75-108.45,184.57-113.19,12.37-1.15,29,.4,36.86,3.88,17.77,7.91,27.51,32,27.51,32S804.37,1356.81,771.73,1362.38Z" style="fill: #739af0"/>
        <path d="M761.32,1372c-16.82,1.84-34.18,3.09-43.28,6.72-3.71-55.54,22.5-97.31,22.5-97.31S757.63,1350.94,761.32,1372Z" style="fill: #5a7de0"/>
        <path d="M775.83,1272s-42.29-2.31-49.81,24.24,14.1,132.52,18.76,143.46c8.48,19.91,51.23,79.22,51.23,79.22l13.7-7.1s-27.52-86.82-33.66-95.41C766.4,1402.88,788.48,1283.51,775.83,1272Z" style="fill: #ffb27d"/>
        <path d="M809.71,1511.78a63.15,63.15,0,0,1,6.39,6.55c2.84,3.48.34,4.73,8.51,20.47,0,0-.42,2.18-2.2,1.78s-7.93-6.5-11.1-6.06c0,0-2.26,1.86-2.5,8-.23,5.77-.25,18.53-1.26,20.93s-8.34-10-11.95-19c-3.17-7.89-.08-34.5-.08-34.5Z" style="fill: #ffb27d"/>
        <path d="M717.68,1331.7c.11.62,40,7.34,65-5.33,0,0,20.85-65.32-8.94-62.2s-47.45,12.52-48.2,26.78S717.68,1331.7,717.68,1331.7Z" style="fill: #739af0"/>
        <path d="M784.86,1256.51c.43,5.28,1.11,11.48,8,18.6,5.3,5.46,13,9.72,18.34,4.34a58.36,58.36,0,0,0,8.33-10c4.65-8,10.19-16.16,10.19-16.16l-23.94-21-1.43-1.26a61,61,0,0,1-17.83,20.24C784.91,1252.46,784.69,1254.48,784.86,1256.51Z" style="fill: #ffb27d"/>
        <path d="M829.73,1253.25s-5.53,8.14-10.18,16.15c-14.88-9.18-14.89-27.59-13.75-37.13Z" style="fill: #ed985f"/>
        <path d="M830.4,1263.75s-36.13-20.1-23.26-42.4,16.86-39.91,40.47-28,23.14,23,20.65,31.45S840.12,1268.41,830.4,1263.75Z" style="fill: #ffb27d"/>
        <path d="M874.37,1211.77c-1.66-9.9-6.69-10.85-10.2-10.19-13.33-22.06-35.13-13.45-35.13-13.45a49.16,49.16,0,0,1-28.47,17.1s4.19,7.8,21.46,12.63c5.28,1.47,11.27.58,17-1.36a96.43,96.43,0,0,1-24.51,9.24c22.76,2.08,44.41-18.73,46.66-21,1,3.22,2.89,10,1.79,14.91-1.5,6.7-7.45,18.85-3.82,20.42C859.19,1240.12,876.85,1226.62,874.37,1211.77Z" style="fill: #2c3a64"/>
        <path d="M921.75,1450.34s-10.08,7.56-2.49,12.5,21.16,6.28,21.22,3C940.67,1455,935.24,1447.25,921.75,1450.34Z" style="fill: #ffb27d"/>
      </g>
      <path d="M1074,1599.93h-13a37.89,37.89,0,0,0,.58-6.51V1589a37.26,37.26,0,0,0-37.21-37.22h-22.87A37.26,37.26,0,0,0,964.24,1589v4.45a36.91,36.91,0,0,0,.58,6.51H950.35a13.69,13.69,0,0,0-13.69,13.69v59.72a61.21,61.21,0,0,0,61.21,61.21H1034a57.5,57.5,0,0,0,57.5-57.51v-59.57A17.53,17.53,0,0,0,1074,1599.93Zm-55.51,60.1v27.74a4.38,4.38,0,0,1-8.75,0V1660a20.19,20.19,0,1,1,8.75,0Zm28.19-66.61a22.25,22.25,0,0,1-1,6.51H980.09a22.25,22.25,0,0,1-1-6.51V1589a22.36,22.36,0,0,1,22.34-22.34h22.87a22.35,22.35,0,0,1,22.33,22.34Z" style="fill: #ffdaa4"/>
    </g>
    <g>
      <path d="M2602.45,1782.39H2101.07c-69.9-80.33-67-178.13,28.37-266.94,17.12-15.94,47-33.1,71.14-38.85,44.48-10.61,94.92-13,95.32-13.27.14,0,56.07-7.84,72-27.24,49.55-60.27,62.28-68.89,62.28-68.89,50.51-9.87,93.59-12.77,125.53,5.09v0c29.59,16.57,49.62,51,57.12,114.19,1.42,12,2.4,24.94,2.9,39,1.83,51.31,11.9,97,17.88,135.59a0,0,0,0,1,0,0C2642.31,1717.12,2648.43,1759.69,2602.45,1782.39Z" style="fill: #f99746"/>
      <path d="M2530.71,1436.38c-30.65,16.7-34,71.69-82,85.89s-129.39,12.91-175.58,63c-44.55,48.34-93.7-74.64-72.54-109.22,44.48-10.56,94.92-13,95.31-13.21.15-.06,68.42-.33,84.36-19.64,49.56-60,49.95-76.06,49.95-76.06,50.51-9.82,93.59-12.71,125.53,5.07v0C2590.93,1408.59,2561.35,1419.69,2530.71,1436.38Z" style="fill: #ed7d2b"/>
      <path d="M2633.63,1659.74c-70.34-87.8-214.83,31.9-252.23,28.52-34.38-3.11,67-123.11,192.82-141,50.84-7.22,38.66-59.76,38.64-61.38,1.42,11.9,2.39,24.83,2.9,38.86C2617.59,1575.84,2627.65,1621.27,2633.63,1659.74Z" style="fill: #ed7d2b"/>
      <g>
        <path d="M2241.34,1707.54c-4.92,9.49-6,26.93-7.49,32.84s-27.24,26-29.45,25c-5.64-2.55-.25-12.37,3.19-19.55.14-.29.27-.58.4-.86,3.4-7.24.48-23.39,2.24-31.74s-6.7-30.79-6.7-30.79l14.24-18s10,19,17.17,22.51a17.32,17.32,0,0,1,3.48,2.22C2243.28,1693.2,2245.38,1699.74,2241.34,1707.54Z" style="fill: #ffb27d"/>
        <path d="M2432.18,1229.16A60.23,60.23,0,0,0,2395.7,1246c-6.29,6-13.27,14.26-17.58,24.1-9.4,21.44-6.16,46.39-11.53,60.07s-8.59,16.07,0,22.27,10,12.1-.24,18.67-17.85,27,10.8,28.82,84.18-8.62,91.32-13.92,26.64-13.17,36-27.34c18.69-28.34,3.8-47.37-10.63-52.17C2471.83,1299.21,2479.91,1225.16,2432.18,1229.16Z" style="fill: #163560"/>
        <path d="M2394.57,1347.85s-28.4,64.12-34.32,69.7-33.63,16.47-31.14,25.81,23.35,18.37,32.07,16.19S2392,1419.7,2392,1419.7Z" style="fill: #739af0"/>
        <path d="M2331.42,1449s1.54-11,28.46-14.59c14.93-2,39.93-43.63,39.93-43.63l-25,65.69-24.21,10.47Z" style="fill: #5a7de0"/>
        <path d="M2342.36,1469.7s-140.19-9.82-159.39,12.43c-15.24,17.66,12.51,210.51,12.51,210.51s38.15,1.11,41.15-9c0,0-7.12-93.63-1.16-109.82s2.2-38.6,2.2-38.6,74.64,11.17,98.32,5.51S2342.36,1469.7,2342.36,1469.7Z" style="fill: #233862"/>
        <path d="M2191.28,1763.09c-9.87,4.07-22,16.69-26.9,20.26s-37.6,2.31-38.65.11c-2.77-5.8,8.65-9.93,15.91-13.27l.32-.15h0c7.18-3.62,15.21-17.48,21.84-22.64s14.75-27.85,14.75-27.85l22.48-4.56s-4.63,21-1.4,28.27a17,17,0,0,1,.78,2.08C2202.5,1752.07,2200.23,1759.4,2191.28,1763.09Z" style="fill: #ffb27d"/>
        <path d="M2404,1476.54s-153,15.55-166.4,31.16-66.29,218.62-66.29,218.62,15.61,8.7,29.8.57c0,0,40.47-68.87,58.37-90.49s24.28-78.08,33.82-84.16c2.56-1.63,92.55,8.49,125.56-16.84S2404,1476.54,2404,1476.54Z" style="fill: #2a4e96"/>
        <path d="M2470.67,1476.82a175.53,175.53,0,0,1-12.77,21c-11.45,16-24.7,27.44-39.07,30.42-20.86,4.33-90.82-36.27-87.28-58.67,1.93-12.19,40.8-34.1,47.07-43s10-53.18,13.39-71.27c2.49-13.47,10.84-14.88,21.27-18.45,44.33-15.19,75.9.88,75.9.88C2509.46,1349.17,2498.18,1424.2,2470.67,1476.82Z" style="fill: #739af0"/>
        <path d="M2468.54,1291.61a193,193,0,0,0,3.33-22.48c.68-8.29-11.91-35.31-31.46-34.19a41.42,41.42,0,0,0-16.5,8.08c-6.18,5.07-14.79,15.58-1.67,41l3.61,8.65Z" style="fill: #163560"/>
        <g>
          <path d="M2428.91,1335.28c.64,4.63,4.76,7.28,14,6.69s22.49-6.24,21.39-10.53c-1-3.76-5.1-12.59-6.79-35l-1.68.48-28.42,8s1.37,9,2.06,17.59C2430,1329.65,2428.59,1332.93,2428.91,1335.28Z" style="fill: #ffb27d"/>
          <path d="M2427.36,1304.88s1.37,9,2.06,17.59c16.12-1.73,23.5-17.13,26.36-25.57Z" style="fill: #f4a269"/>
          <path d="M2426.75,1318s37.18-9.35,31-32.42-5.54-39.8-29.54-34.8-26.23,15-26,23.22S2416.92,1319.85,2426.75,1318Z" style="fill: #ffb27d"/>
          <path d="M2411.2,1254.77s12.48,23.78,36,26.35c13.78,1.5,17.56,10.58,17.56,10.58s-4.13-26-11.06-41.84C2453.73,1249.86,2415.38,1239.84,2411.2,1254.77Z" style="fill: #163560"/>
          <path d="M2415.46,1257.92s-8.14,8.3-10.65,14.16c-3.72,8.67,3.53,27,6.53,30.89,0,0-17.3-29.36-11.52-42.06C2406,1247.43,2415.46,1257.92,2415.46,1257.92Z" style="fill: #163560"/>
        </g>
        <path d="M2302.07,1472s-7.41,7.84-8.31,8.26c-4.89,2.29-11.08,1-14.06,1.71s-2.48-1.11-.28-2.62,7.63-.92,5.42-1.47-14.19-2.78-18.7-1.57c-7.13,1.91-12.76-.34-13.2-1.07s16.28-8.91,21.07-8.63,18.52-.38,18.52-.38Z" style="fill: #ffb27d"/>
        <path d="M2501.75,1352.22s4.45,109-8.37,124.32c-12.43,14.82-65.52,4.77-88.47-.21a6.39,6.39,0,0,0-5.12,1.47c-1.79,1.61-2.57-10.91-2.57-10.91s69.26-10.14,73.91-11.45c6.69-1.89,2-77,2-77Z" style="fill: #ffb27d"/>
        <path d="M2402.63,1474.86s-6.21,6.28-8.57,9.49-18.86,9-19.23,7.32,7.38-7,8.08-8.91,9.16-11.76,14.31-12.88S2402.63,1474.86,2402.63,1474.86Z" style="fill: #ffb27d"/>
        <path d="M2397.22,1466.89s-25.44,5.88-29.76,7.65-13.48,14.72-9.84,16.67c2.29,1.22,12.33-4.08,17.43-5.18s19.54,1.4,26.15-11.65C2401.94,1472.91,2397.22,1466.89,2397.22,1466.89Z" style="fill: #ffb27d"/>
        <path d="M2191.28,1763.09c-9.87,4.07-22,16.69-26.9,20.26s-37.6,2.31-38.65.11c-2.77-5.8,8.65-9.93,15.91-13.27l.32-.15h0l1-.34s14.09,5,25.8,0c9.14-3.92,22.69-18.46,31.63-24.36C2202.5,1752.07,2200.23,1759.4,2191.28,1763.09Z" style="fill: #2a4e96"/>
        <path d="M2241.34,1707.54c-4.92,9.49-6,26.93-7.49,32.84s-27.24,26-29.45,25c-5.64-2.55-.25-12.37,3.19-19.55a16.08,16.08,0,0,0,7.87-2.93c6.44-4.29,17.37-20.49,18.34-30.05.8-7.8.3-19,4.62-23.67C2243.28,1693.2,2245.38,1699.74,2241.34,1707.54Z" style="fill: #193b72"/>
        <g>
          <g>
            <polygon points="2364.42 1494.49 2253.59 1494.49 2220.25 1411.59 2330.91 1411.59 2364.42 1494.49" style="fill: #ef8035"/>
            <polygon points="2252.29 1491.27 2398.64 1491.27 2398.64 1494.49 2253.59 1494.49 2252.29 1491.27" style="fill: #ed7d2b"/>
          </g>
          <path d="M2281.56,1453c-.83-2.91.85-5.28,3.77-5.28a7.58,7.58,0,0,1,6.79,5.28c.83,2.92-.85,5.28-3.77,5.28A7.57,7.57,0,0,1,2281.56,1453Z" style="fill: #fff"/>
        </g>
        <path d="M2470.67,1476.82a175.53,175.53,0,0,1-12.77,21c-35.52-1.33-44.08-15.68-44.08-15.68Z" style="fill: #5a7de0"/>
        <path d="M2415.48,1463.25s40.55-9.3,45.59-18,12.09-66.77,12.09-66.77l16.92,21.69-3.42,51s-19.31,19.09-20.55,18.4S2415.48,1463.25,2415.48,1463.25Z" style="fill: #5a7de0"/>
        <path d="M2489.18,1337.76s9.61,4.83,13.32,11.61c7,12.88,14.57,112.7-5.46,129.19s-78.18,13.2-85,1.52c0,0-.47-10.94,3.46-16.83,0,0,52.34-6.91,54.68-10.21s-1.7-74,.77-80.43S2489.18,1337.76,2489.18,1337.76Z" style="fill: #739af0"/>
      </g>
      <path d="M2497.88,1477.46s-15.11,14.16-78.34,16.19c-49.44,1.59-101.51,21.52-125.84,55.76-6.78,9.54-11.47,25.27-13.26,35.86-3.31,19.46,120,49.71,122,46.89s81.21-70.89,81.21-70.89Z" style="fill: #f99746"/>
    </g>
    <g>
      <path d="M1926.18,1087.08s61.49,63.75,64.39,87.74-29.45,61.45-29.45,61.45Z" style="fill: #ed7d2b"/>
      <path d="M1898.4,1747.76s-2.17,33.82-8.72,34.29c-.87.06-33.18,0-33.18,0l-41.25-.33s.29-9.94,12.35-12,32.27-10.51,39.61-26.43C1874.93,1726.52,1898.4,1747.76,1898.4,1747.76Z" style="fill: #0e2644"/>
      <path d="M1990.28,1748s-2.17,33.82-8.71,34.29c-.87.06-33.19,0-33.19,0l-41.25-.33s.29-9.94,12.35-12,32.27-10.51,39.61-26.43C1966.81,1726.72,1990.28,1748,1990.28,1748Z" style="fill: #0e2644"/>
      <path d="M1853.5,1384.2s10.64,69,50.62,191.6,45.35,175.64,45.35,175.64l43.18-1.12s.66-133.87-17.75-195.5-3.52-222.07-3.52-222.07Z" style="fill: #163560"/>
      <path d="M1832.6,1336.22s-1.76,104,16,231.7,11.49,181.89,11.49,181.89l43.09,1.53s26-127.67,18.78-191.59,35.74-219.2,35.74-219.2Z" style="fill: #1c468a"/>
      <path d="M1916.54,1093.07l-23,15-33.17-6.25c.47-2.68,2.68-13.78,4.7-23.83l.36-1.76c1.72-8.56,3.22-15.9,3.22-15.9l31-13.61,11.57-5.07c0,.18-.92,9.49-1,10.85C1908,1076.65,1916.54,1093.07,1916.54,1093.07Z" style="fill: #ffb27d"/>
      <path d="M1868.92,1085.37c.64-.27,40-11.78,44.25-10.36s6.77,9.68,6.77,9.68l-64.33,14.4S1860.69,1088.81,1868.92,1085.37Z" style="fill: #ed7d2b"/>
      <path d="M1974.2,1349.37c-6.73,30.38-117.63,33.75-146.16,6.09-3.25-3.15-3.37-17.78-2.1-37.51,2.48-38.54,10.31-96.51,10.67-126.14a235.47,235.47,0,0,1,4.82-42.21,343.62,343.62,0,0,1,14.18-50.51s54.2-17.4,64.33-14.4C1968.74,1099.15,1980.93,1319,1974.2,1349.37Z" style="fill: #f99746"/>
      <path d="M1825.94,1318c2.48-38.54,10.31-96.51,10.67-126.14a235.47,235.47,0,0,1,4.82-42.21l32.6-5.68S1905.61,1274.11,1825.94,1318Z" style="fill: #ed7d2b"/>
      <path d="M1843.7,1264.26s2.21,5.31-2.47,8.86-7.7,9.33-6.65,13.55,11.28,11.13,14.83,10,10.78-6.65,10-8.88,4.89-19.52-3.74-26.2S1843.7,1264.26,1843.7,1264.26Z" style="fill: #ffb27d"/>
      <path d="M1880.51,1091.34s-31.79,5.88-57.19,43.14-42.12,65-37.49,78.42,47.05,60.2,54.38,60.21,19.17-5.28,19.86-17.28c0,0-29.83-44.93-23.92-51.63,2.52-2.87,38.93-32.29,44.09-19C1888.78,1207.31,1880.51,1091.34,1880.51,1091.34Z" style="fill: #f99746"/>
      <path d="M1907.87,1052.92c-6.83,11.52-32.21,21.43-42.79,25.07l.36-1.76c1.72-8.56,3.22-15.9,3.22-15.9l31-13.61C1906.52,1046.64,1910.69,1048.19,1907.87,1052.92Z" style="fill: #fca56b"/>
      <path d="M1857,1058.42s49.88,15.68,59.17-15.54,22-50.21-9.48-61.54-41.22-1.27-46.85,8.39S1844.24,1053.54,1857,1058.42Z" style="fill: #ffb27d"/>
      <path d="M1861.79,986.73s3.1,36.35,10.62,34.79,14.34-2.72,13.22,8.24-11.58,23.58,11.58,25.57,56.6-57.68,50.26-69C1929.18,953.64,1835.33,946.85,1861.79,986.73Z" style="fill: #163560"/>
    </g>
    <g>
      <g>
        <g>
          <g>
            <g>
              <path d="M2264.28,892.32a2.37,2.37,0,1,0,3.34,0A2.37,2.37,0,0,0,2264.28,892.32Z" style="fill: #d5e5fb"/>
              <path d="M2272,900.11a2.37,2.37,0,1,0,3.34,0A2.36,2.36,0,0,0,2272,900.11Z" style="fill: #d5e5fb"/>
              <path d="M2283.15,908a2.37,2.37,0,1,0,0,3.34A2.37,2.37,0,0,0,2283.15,908Z" style="fill: #d5e5fb"/>
            </g>
            <g>
              <path d="M2287.61,915.87a2.37,2.37,0,1,0,3.35,0A2.37,2.37,0,0,0,2287.61,915.87Z" style="fill: #d5e5fb"/>
              <path d="M2295.32,923.66a2.37,2.37,0,1,0,3.35,0A2.36,2.36,0,0,0,2295.32,923.66Z" style="fill: #d5e5fb"/>
              <path d="M2306.48,931.56a2.37,2.37,0,1,0,0,3.34A2.37,2.37,0,0,0,2306.48,931.56Z" style="fill: #d5e5fb"/>
            </g>
          </g>
          <g>
            <g>
              <path d="M2310.63,939.11a2.37,2.37,0,1,0,3.34,0A2.37,2.37,0,0,0,2310.63,939.11Z" style="fill: #d5e5fb"/>
              <path d="M2318.34,946.89a2.37,2.37,0,1,0,3.34,0A2.37,2.37,0,0,0,2318.34,946.89Z" style="fill: #d5e5fb"/>
              <path d="M2329.5,954.79a2.37,2.37,0,1,0,0,3.35A2.37,2.37,0,0,0,2329.5,954.79Z" style="fill: #d5e5fb"/>
            </g>
            <g>
              <path d="M2334,962.66a2.37,2.37,0,1,0,3.35,0A2.37,2.37,0,0,0,2334,962.66Z" style="fill: #d5e5fb"/>
              <path d="M2341.67,970.44a2.37,2.37,0,1,0,3.35,0A2.37,2.37,0,0,0,2341.67,970.44Z" style="fill: #d5e5fb"/>
              <path d="M2352.83,978.34a2.37,2.37,0,1,0,0,3.35A2.37,2.37,0,0,0,2352.83,978.34Z" style="fill: #d5e5fb"/>
            </g>
          </g>
        </g>
        <g>
          <g>
            <g>
              <path d="M2170.48,916.35a2.37,2.37,0,1,0,1.78,2.83A2.35,2.35,0,0,0,2170.48,916.35Z" style="fill: #d5e5fb"/>
              <path d="M2168,927a2.37,2.37,0,1,0,1.77,2.84A2.37,2.37,0,0,0,2168,927Z" style="fill: #d5e5fb"/>
              <path d="M2167.31,940.67a2.37,2.37,0,1,0-2.84,1.78A2.35,2.35,0,0,0,2167.31,940.67Z" style="fill: #d5e5fb"/>
            </g>
            <g>
              <path d="M2163.05,948.65a2.37,2.37,0,1,0,1.77,2.84A2.37,2.37,0,0,0,2163.05,948.65Z" style="fill: #d5e5fb"/>
              <path d="M2160.59,959.33a2.37,2.37,0,1,0,1.78,2.83A2.36,2.36,0,0,0,2160.59,959.33Z" style="fill: #d5e5fb"/>
              <path d="M2159.88,973a2.37,2.37,0,1,0-2.84,1.78A2.38,2.38,0,0,0,2159.88,973Z" style="fill: #d5e5fb"/>
            </g>
          </g>
          <g>
            <g>
              <path d="M2155.71,980.52a2.37,2.37,0,1,0,1.78,2.84A2.38,2.38,0,0,0,2155.71,980.52Z" style="fill: #d5e5fb"/>
              <path d="M2153.25,991.2A2.37,2.37,0,1,0,2155,994,2.38,2.38,0,0,0,2153.25,991.2Z" style="fill: #d5e5fb"/>
              <path d="M2152.54,1004.85a2.37,2.37,0,1,0-2.84,1.78A2.38,2.38,0,0,0,2152.54,1004.85Z" style="fill: #d5e5fb"/>
            </g>
            <g>
              <path d="M2148.27,1012.83a2.37,2.37,0,1,0,1.78,2.84A2.36,2.36,0,0,0,2148.27,1012.83Z" style="fill: #d5e5fb"/>
              <path d="M2145.82,1023.5a2.37,2.37,0,1,0,1.77,2.84A2.37,2.37,0,0,0,2145.82,1023.5Z" style="fill: #d5e5fb"/>
              <path d="M2145.1,1037.16a2.37,2.37,0,1,0-2.84,1.77A2.36,2.36,0,0,0,2145.1,1037.16Z" style="fill: #d5e5fb"/>
            </g>
          </g>
        </g>
        <g>
          <path d="M2260.28,840a51.63,51.63,0,1,0-51.63,51.62A51.64,51.64,0,0,0,2260.28,840Z" style="fill: #c6dcf7"/>
          <g>
            <path d="M2225.22,819.3a16.57,16.57,0,1,0-16.57,16.57A16.56,16.56,0,0,0,2225.22,819.3Z" style="fill: #ebf3fa"/>
            <path d="M2208.65,835.87a29,29,0,0,1,29,29h-58A29,29,0,0,1,2208.65,835.87Z" style="fill: #ebf3fa"/>
          </g>
        </g>
        <g>
          <path d="M2334.47,999.33l-1.92-4.74a13.43,13.43,0,0,0-12.46-8.4H2284.8v118h146v-95.6h-82.61A14.78,14.78,0,0,1,2334.47,999.33Z" style="fill: #c6dcf7"/>
          <path d="M2379.63,1040.06h-4.88a14.1,14.1,0,0,0,.22-2.44V1036a14,14,0,0,0-13.95-14h-8.57a14,14,0,0,0-13.94,14v1.67a14.1,14.1,0,0,0,.21,2.44h-5.42a5.13,5.13,0,0,0-5.13,5.13v22.38a22.94,22.94,0,0,0,22.94,22.94h13.54a21.55,21.55,0,0,0,21.56-21.55v-22.33A6.58,6.58,0,0,0,2379.63,1040.06Zm-20.8,22.52V1073a1.64,1.64,0,0,1-3.28,0v-10.4a7.56,7.56,0,1,1,3.28,0Zm10.56-25a8.28,8.28,0,0,1-.36,2.44h-24.58a8.29,8.29,0,0,1-.37-2.44V1036a8.37,8.37,0,0,1,8.37-8.37H2361a8.37,8.37,0,0,1,8.37,8.37Z" style="fill: #ebf3fa"/>
        </g>
      </g>
      <path d="M2087.57,1110.44c0,26.36,44.64,74.49,44.64,74.49s44.64-48.13,44.64-74.49-20-47.72-44.64-47.72S2087.57,1084.08,2087.57,1110.44Zm18.74-4.84a25.91,25.91,0,1,1,25.9,25.91A25.9,25.9,0,0,1,2106.31,1105.6Z" style="fill: #c6dcf7"/>
    </g>
    <rect x="188.39" y="1781.25" width="2610.68" height="7.52" rx="3.08" style="fill: #233862"/>
    <g>
      <path d="M1056.21,1091.67c-1.1-4.55.89-8.13,5.11-8.13s7.89,3.51,9,8.11-.87,8.12-5.11,8.13S1057.33,1096.27,1056.21,1091.67Zm10.53,0c-.69-2.85-2.62-5-4.71-5s-2.94,2.09-2.23,5,2.59,5,4.7,5S1067.44,1094.55,1066.74,1091.65Z" style="fill: #f99746"/>
      <path d="M995.24,973.66l-2.61.68-1.41-2.83,4.24-1.35h2.38l3.83,15.82h-3.45Z" style="fill: #2f539b"/>
      <path d="M1007.61,978.1c-1.1-4.55.89-8.12,5.11-8.13s7.89,3.51,9,8.11-.87,8.13-5.11,8.13S1008.73,982.7,1007.61,978.1Zm10.53,0c-.69-2.85-2.62-5-4.71-5s-2.94,2.09-2.23,5,2.59,5,4.7,5S1018.84,981,1018.14,978.09Z" style="fill: #2f539b"/>
      <path d="M1082,1196.61c-1.1-4.56.89-8.13,5.11-8.14s7.88,3.51,9,8.11-.87,8.13-5.11,8.13S1083.07,1201.21,1082,1196.61Zm10.52,0c-.69-2.85-2.61-5-4.7-5s-2.94,2.09-2.24,5,2.6,5,4.71,5S1093.19,1199.48,1092.48,1196.59Z" style="fill: #2f539b"/>
      <path d="M1013.13,1047.55l-2.6.68-1.41-2.83,4.23-1.35h2.38l3.83,15.81h-3.45Z" style="fill: #2f539b"/>
      <path d="M1025.5,1052c-1.1-4.56.9-8.13,5.12-8.14s7.88,3.51,9,8.11-.87,8.13-5.11,8.13S1026.62,1056.59,1025.5,1052Zm10.53,0c-.69-2.85-2.62-5-4.71-5s-2.94,2.09-2.23,5,2.59,5,4.7,5S1036.73,1054.87,1036,1052Z" style="fill: #2f539b"/>
      <path d="M1023.44,1010.38l-2.61.68-1.41-2.83,4.23-1.35H1026l3.83,15.82h-3.45Z" style="fill: #f99746"/>
      <path d="M1035.81,1014.82c-1.1-4.55.89-8.12,5.11-8.13s7.88,3.51,9,8.11-.87,8.13-5.11,8.13S1036.92,1019.42,1035.81,1014.82Zm10.52,0c-.69-2.85-2.61-5-4.7-5s-2.94,2.09-2.24,5,2.6,5,4.71,5S1047,1017.7,1046.33,1014.81Z" style="fill: #f99746"/>
      <path d="M1022.74,1087.26l-2.6.68-1.41-2.83,4.23-1.35h2.38l3.83,15.82h-3.44Z" style="fill: #2f539b"/>
      <path d="M1035.12,1091.71c-1.1-4.56.89-8.13,5.11-8.14s7.88,3.51,9,8.11-.87,8.13-5.11,8.13S1036.23,1096.3,1035.12,1091.71Zm10.52,0c-.69-2.85-2.61-5-4.7-5s-2.94,2.09-2.24,5,2.6,5,4.71,5S1046.34,1094.58,1045.64,1091.69Z" style="fill: #2f539b"/>
      <path d="M1067.45,978.09c-1.1-4.56.89-8.13,5.11-8.14s7.88,3.51,9,8.11-.87,8.13-5.11,8.13S1068.56,982.68,1067.45,978.09Zm10.52,0c-.69-2.85-2.61-5-4.7-5s-2.94,2.09-2.24,5,2.6,5,4.71,5S1078.67,981,1078,978.07Z" style="fill: #f99746"/>
      <path d="M1034,973.68l-2.6.67-1.41-2.82,4.23-1.36h2.38l3.83,15.82H1037Z" style="fill: #2f539b"/>
      <path d="M1046.36,978.12c-1.11-4.55.89-8.12,5.11-8.13s7.88,3.51,9,8.11-.86,8.12-5.11,8.13S1047.47,982.72,1046.36,978.12Zm10.52,0c-.69-2.85-2.62-5-4.7-5s-3,2.09-2.24,5,2.6,5,4.71,5S1057.58,981,1056.88,978.1Z" style="fill: #2f539b"/>
      <path d="M1074.58,1168.38c-1.1-4.56.89-8.13,5.11-8.14s7.89,3.51,9,8.11-.87,8.13-5.11,8.13S1075.7,1173,1074.58,1168.38Zm10.53,0c-.69-2.85-2.62-5-4.71-5s-2.94,2.09-2.23,5,2.59,5,4.7,5S1085.81,1171.25,1085.11,1168.36Z" style="fill: #f99746"/>
      <path d="M1031.5,1124.26l-2.6.67-1.41-2.82,4.23-1.36h2.38l3.83,15.82h-3.45Z" style="fill: #2f539b"/>
      <path d="M1043.88,1128.7c-1.11-4.55.89-8.12,5.1-8.13s7.89,3.51,9,8.11-.87,8.12-5.11,8.13S1045,1133.3,1043.88,1128.7Zm10.52,0c-.69-2.85-2.62-5-4.71-5s-2.94,2.09-2.23,5,2.59,5,4.7,5S1055.1,1131.58,1054.4,1128.68Z" style="fill: #2f539b"/>
      <path d="M1065,1128.67c-1.1-4.56.89-8.13,5.11-8.14s7.88,3.51,9,8.11-.86,8.13-5.11,8.13S1066.08,1133.26,1065,1128.67Zm10.52,0c-.69-2.85-2.62-5-4.7-5s-2.94,2.09-2.24,5,2.6,5,4.71,5S1076.19,1131.54,1075.49,1128.65Z" style="fill: #2f539b"/>
      <path d="M1087.68,1124.16l-2.61.68-1.41-2.83,4.24-1.35h2.38l3.83,15.81h-3.45Z" style="fill: #2f539b"/>
      <path d="M1041.11,1164l-2.6.68-1.41-2.82,4.23-1.36h2.38l3.83,15.81h-3.44Z" style="fill: #2f539b"/>
      <path d="M1053.49,1168.41c-1.1-4.55.89-8.13,5.11-8.13s7.88,3.51,9,8.11-.87,8.12-5.11,8.13S1054.6,1173,1053.49,1168.41Zm10.52,0c-.69-2.85-2.61-5-4.7-5s-2.94,2.09-2.24,5,2.6,5,4.71,5S1064.71,1171.29,1064,1168.39Z" style="fill: #2f539b"/>
      <path d="M1093.23,1256.42c-1.1-4.55.9-8.13,5.11-8.13s7.89,3.51,9,8.11-.87,8.12-5.11,8.13S1094.35,1261,1093.23,1256.42Zm10.53,0c-.69-2.85-2.62-5-4.71-5s-2.94,2.09-2.23,5,2.59,5,4.7,5S1104.46,1259.3,1103.76,1256.4Z" style="fill: #2f539b"/>
      <path d="M1116,1251.92l-2.61.67-1.41-2.82,4.23-1.35h2.39l3.83,15.82h-3.45Z" style="fill: #2f539b"/>
      <path d="M1059.77,1252l-2.61.68-1.41-2.83,4.23-1.35h2.39l3.83,15.81h-3.45Z" style="fill: #2f539b"/>
      <path d="M1072.14,1256.46c-1.1-4.56.89-8.13,5.11-8.14s7.89,3.51,9,8.11-.87,8.13-5.11,8.14S1073.25,1261.05,1072.14,1256.46Zm10.52,0c-.68-2.85-2.61-5-4.7-5s-2.94,2.09-2.24,5,2.6,5,4.71,5S1083.37,1259.33,1082.66,1256.44Z" style="fill: #2f539b"/>
      <path d="M1128.32,1256.36c-1.1-4.55.89-8.12,5.11-8.13s7.88,3.51,9,8.11-.87,8.12-5.11,8.13S1129.44,1261,1128.32,1256.36Zm10.53,0c-.69-2.84-2.62-5-4.71-5s-2.94,2.09-2.24,5,2.6,5,4.71,5S1139.55,1259.24,1138.85,1256.34Z" style="fill: #f99746"/>
      <path d="M1149.41,1256.33c-1.1-4.56.9-8.13,5.11-8.14s7.89,3.51,9,8.11-.87,8.13-5.11,8.13S1150.53,1260.92,1149.41,1256.33Zm10.53,0c-.69-2.85-2.62-5-4.71-5s-2.94,2.09-2.23,5,2.59,5,4.7,5S1160.64,1259.2,1159.94,1256.31Z" style="fill: #f99746"/>
      <path d="M1067.17,1284.74c-1.1-4.55.89-8.12,5.11-8.13s7.89,3.51,9,8.11-.87,8.12-5.11,8.13S1068.29,1289.34,1067.17,1284.74Zm10.53,0c-.69-2.84-2.62-5-4.71-5s-2.94,2.09-2.23,5,2.59,5,4.7,5S1078.4,1287.62,1077.7,1284.72Z" style="fill: #2f539b"/>
      <path d="M1089.88,1280.24l-2.6.68-1.41-2.83,4.23-1.35h2.38l3.83,15.82h-3.44Z" style="fill: #2f539b"/>
      <path d="M1102.26,1284.68c-1.1-4.55.89-8.12,5.11-8.13s7.88,3.51,9,8.11-.87,8.13-5.11,8.13S1103.37,1289.28,1102.26,1284.68Zm10.52,0c-.69-2.85-2.62-5-4.7-5s-2.94,2.09-2.24,5,2.6,5,4.71,5S1113.48,1287.56,1112.78,1284.67Z" style="fill: #2f539b"/>
      <path d="M1123.35,1284.65c-1.1-4.56.89-8.13,5.11-8.13s7.89,3.51,9,8.1-.87,8.13-5.11,8.14S1124.46,1289.25,1123.35,1284.65Zm10.53,0c-.69-2.85-2.62-5-4.71-5s-2.94,2.1-2.23,5,2.59,5,4.7,5S1134.58,1287.52,1133.88,1284.63Z" style="fill: #2f539b"/>
      <path d="M1731.35,1256.42c-1.1-4.55.89-8.13,5.11-8.13s7.88,3.51,9,8.11-.87,8.12-5.11,8.13S1732.46,1261,1731.35,1256.42Zm10.52,0c-.69-2.85-2.61-5-4.7-5s-2.94,2.09-2.24,5,2.6,5,4.71,5S1742.57,1259.3,1741.87,1256.4Z" style="fill: #2f539b"/>
      <path d="M1754.06,1251.92l-2.6.67-1.41-2.82,4.23-1.35h2.38l3.83,15.82H1757Z" style="fill: #2f539b"/>
      <path d="M1697.88,1252l-2.6.68-1.41-2.83,4.23-1.35h2.38l3.83,15.81h-3.45Z" style="fill: #2f539b"/>
      <path d="M1710.26,1256.46c-1.11-4.56.89-8.13,5.11-8.14s7.88,3.51,9,8.11-.86,8.13-5.11,8.14S1711.37,1261.05,1710.26,1256.46Zm10.52,0c-.69-2.85-2.62-5-4.7-5s-2.95,2.09-2.24,5,2.6,5,4.7,5S1721.48,1259.33,1720.78,1256.44Z" style="fill: #2f539b"/>
      <path d="M1766.44,1256.36c-1.11-4.55.89-8.12,5.11-8.13s7.88,3.51,9,8.11-.87,8.12-5.11,8.13S1767.55,1261,1766.44,1256.36Zm10.52,0c-.69-2.84-2.62-5-4.7-5s-3,2.09-2.24,5,2.6,5,4.7,5S1777.66,1259.24,1777,1256.34Z" style="fill: #f99746"/>
      <path d="M1787.53,1256.33c-1.1-4.56.89-8.13,5.11-8.14s7.88,3.51,9,8.11-.87,8.13-5.11,8.13S1788.64,1260.92,1787.53,1256.33Zm10.52,0c-.69-2.85-2.61-5-4.7-5s-2.94,2.09-2.24,5,2.6,5,4.71,5S1798.75,1259.2,1798.05,1256.31Z" style="fill: #f99746"/>
      <path d="M1647,1284.74c-1.11-4.55.89-8.12,5.1-8.13s7.89,3.51,9,8.11-.87,8.12-5.11,8.13S1648.11,1289.34,1647,1284.74Zm10.52,0c-.69-2.84-2.62-5-4.71-5s-2.94,2.09-2.23,5,2.59,5,4.7,5S1658.22,1287.62,1657.52,1284.72Z" style="fill: #2f539b"/>
      <path d="M1669.71,1280.24l-2.61.68-1.41-2.83,4.23-1.35h2.39l3.83,15.82h-3.45Z" style="fill: #2f539b"/>
      <path d="M1682.08,1284.68c-1.1-4.55.89-8.12,5.11-8.13s7.89,3.51,9,8.11-.87,8.13-5.11,8.13S1683.2,1289.28,1682.08,1284.68Zm10.53,0c-.69-2.85-2.62-5-4.71-5s-2.94,2.09-2.23,5,2.59,5,4.7,5S1693.31,1287.56,1692.61,1284.67Z" style="fill: #2f539b"/>
      <path d="M1703.17,1284.65c-1.1-4.56.9-8.13,5.11-8.13s7.89,3.51,9,8.1-.87,8.13-5.11,8.14S1704.29,1289.25,1703.17,1284.65Zm10.53,0c-.69-2.85-2.62-5-4.71-5s-2.94,2.1-2.23,5,2.59,5,4.7,5S1714.4,1287.52,1713.7,1284.63Z" style="fill: #2f539b"/>
      <path d="M1120,1358.87c-1.1-4.55.89-8.13,5.11-8.13s7.89,3.51,9,8.11-.87,8.12-5.11,8.13S1121.14,1363.47,1120,1358.87Zm10.53,0c-.69-2.85-2.62-5-4.71-5s-2.94,2.1-2.23,5,2.59,5,4.7,5S1131.25,1361.75,1130.55,1358.85Z" style="fill: #f99746"/>
      <path d="M1142.73,1354.37l-2.6.67-1.41-2.82,4.23-1.36h2.38l3.83,15.81h-3.44Z" style="fill: #f99746"/>
      <path d="M1076.94,1314.75l-2.6.68-1.41-2.83,4.23-1.35h2.38l3.83,15.81h-3.45Z" style="fill: #2f539b"/>
      <path d="M1089.32,1319.2c-1.11-4.56.89-8.13,5.11-8.14s7.88,3.51,9,8.11-.87,8.13-5.11,8.13S1090.43,1323.79,1089.32,1319.2Zm10.52,0c-.69-2.85-2.62-5-4.71-5s-2.94,2.09-2.23,5,2.59,5,4.7,5S1100.54,1322.07,1099.84,1319.18Z" style="fill: #2f539b"/>
      <path d="M1110.41,1319.16c-1.1-4.55.89-8.12,5.11-8.13s7.88,3.51,9,8.11-.87,8.12-5.11,8.13S1111.52,1323.76,1110.41,1319.16Zm10.52,0c-.69-2.85-2.62-5-4.7-5s-2.94,2.09-2.24,5,2.6,5,4.71,5S1121.63,1322,1120.93,1319.14Z" style="fill: #2f539b"/>
      <path d="M1133.12,1314.66l-2.6.67-1.42-2.82,4.24-1.36h2.38l3.83,15.82h-3.45Z" style="fill: #2f539b"/>
      <path d="M1694.39,1314.75l-2.61.68-1.41-2.83,4.24-1.35H1697l3.83,15.81h-3.45Z" style="fill: #2f539b"/>
      <path d="M1706.76,1319.2c-1.1-4.56.89-8.13,5.11-8.14s7.89,3.51,9,8.11-.87,8.13-5.11,8.13S1707.88,1323.79,1706.76,1319.2Zm10.53,0c-.69-2.85-2.62-5-4.71-5s-2.94,2.09-2.23,5,2.59,5,4.7,5S1718,1322.07,1717.29,1319.18Z" style="fill: #2f539b"/>
      <path d="M1727.86,1319.16c-1.11-4.55.89-8.12,5.1-8.13s7.89,3.51,9,8.11-.87,8.12-5.11,8.13S1729,1323.76,1727.86,1319.16Zm10.52,0c-.69-2.85-2.62-5-4.71-5s-2.94,2.09-2.23,5,2.59,5,4.7,5S1739.08,1322,1738.38,1319.14Z" style="fill: #2f539b"/>
      <path d="M1750.57,1314.66l-2.61.67-1.41-2.82,4.23-1.36h2.39L1757,1327h-3.45Z" style="fill: #2f539b"/>
      <path d="M1086.55,1354.46l-2.6.68-1.41-2.83,4.23-1.35h2.38l3.83,15.82h-3.44Z" style="fill: #2f539b"/>
      <path d="M1098.93,1358.91c-1.1-4.56.89-8.13,5.11-8.14s7.88,3.51,9,8.11-.87,8.13-5.11,8.13S1100,1363.5,1098.93,1358.91Zm10.52,0c-.69-2.85-2.61-5-4.7-5s-2.94,2.09-2.24,5,2.6,5,4.71,5S1110.15,1361.78,1109.45,1358.89Z" style="fill: #2f539b"/>
      <path d="M1155.11,1358.81c-1.1-4.55.89-8.13,5.11-8.13s7.88,3.51,9,8.11-.87,8.12-5.11,8.13S1156.22,1363.41,1155.11,1358.81Zm10.52,0c-.69-2.85-2.61-5-4.7-5s-2.94,2.09-2.24,5,2.6,5,4.71,5S1166.33,1361.69,1165.63,1358.79Z" style="fill: #2f539b"/>
      <path d="M1176.2,1358.77c-1.1-4.55.89-8.12,5.11-8.13s7.89,3.51,9,8.11-.87,8.13-5.11,8.13S1177.32,1363.37,1176.2,1358.77Zm10.53,0c-.69-2.85-2.62-5-4.71-5s-2.94,2.09-2.23,5,2.59,5,4.7,5S1187.43,1361.65,1186.73,1358.76Z" style="fill: #2f539b"/>
      <path d="M1128.16,1386.91c-1.11-4.56.89-8.13,5.11-8.14s7.88,3.51,9,8.11-.87,8.13-5.11,8.13S1129.27,1391.5,1128.16,1386.91Zm10.52,0c-.69-2.85-2.62-5-4.7-5s-3,2.09-2.24,5,2.59,5,4.7,5S1139.38,1389.78,1138.68,1386.89Z" style="fill: #f99746"/>
      <path d="M1150.87,1382.4l-2.61.68-1.41-2.83,4.24-1.35h2.38l3.83,15.81h-3.45Z" style="fill: #f99746"/>
      <path d="M1107.06,1386.94c-1.1-4.55.89-8.12,5.11-8.13s7.89,3.51,9,8.11-.87,8.12-5.11,8.13S1108.18,1391.54,1107.06,1386.94Zm10.53,0c-.69-2.85-2.62-5-4.71-5s-2.94,2.09-2.23,5,2.59,5,4.7,5S1118.29,1389.82,1117.59,1386.92Z" style="fill: #2f539b"/>
      <path d="M1163.24,1386.85c-1.1-4.56.89-8.13,5.11-8.14s7.89,3.51,9,8.11-.87,8.13-5.11,8.14S1164.36,1391.45,1163.24,1386.85Zm10.53,0c-.69-2.85-2.62-5-4.71-5s-2.94,2.09-2.23,5,2.59,5,4.7,5S1174.47,1389.72,1173.77,1386.83Z" style="fill: #2f539b"/>
      <path d="M1184.34,1386.81c-1.11-4.55.89-8.12,5.11-8.13s7.88,3.51,9,8.11-.87,8.12-5.11,8.13S1185.45,1391.41,1184.34,1386.81Zm10.52,0c-.69-2.85-2.62-5-4.71-5s-2.94,2.09-2.23,5,2.59,5,4.7,5S1195.56,1389.69,1194.86,1386.79Z" style="fill: #2f539b"/>
      <path d="M1256.91,1386.91c-1.1-4.56.89-8.13,5.11-8.14s7.88,3.51,9,8.11-.87,8.13-5.11,8.13S1258,1391.5,1256.91,1386.91Zm10.52,0c-.68-2.85-2.61-5-4.7-5s-2.94,2.09-2.24,5,2.6,5,4.71,5S1268.14,1389.78,1267.43,1386.89Z" style="fill: #f99746"/>
      <path d="M1279.62,1382.4l-2.6.68-1.41-2.83,4.23-1.35h2.38l3.83,15.81h-3.45Z" style="fill: #f99746"/>
      <path d="M1235.82,1386.94c-1.1-4.55.89-8.12,5.11-8.13s7.88,3.51,9,8.11-.87,8.12-5.11,8.13S1236.93,1391.54,1235.82,1386.94Zm10.52,0c-.69-2.85-2.62-5-4.7-5s-2.94,2.09-2.24,5,2.6,5,4.71,5S1247,1389.82,1246.34,1386.92Z" style="fill: #2f539b"/>
      <path d="M1292,1386.85c-1.1-4.56.89-8.13,5.11-8.14s7.88,3.51,9,8.11-.87,8.13-5.11,8.14S1293.11,1391.45,1292,1386.85Zm10.52,0c-.69-2.85-2.62-5-4.7-5s-2.94,2.09-2.24,5,2.6,5,4.71,5S1303.22,1389.72,1302.52,1386.83Z" style="fill: #2f539b"/>
      <path d="M1313.09,1386.81c-1.1-4.55.89-8.12,5.11-8.13s7.88,3.51,9,8.11-.87,8.12-5.11,8.13S1314.2,1391.41,1313.09,1386.81Zm10.52,0c-.69-2.85-2.61-5-4.7-5s-2.94,2.09-2.24,5,2.6,5,4.71,5S1324.31,1389.69,1323.61,1386.79Z" style="fill: #2f539b"/>
      <path d="M1550,1386.91c-1.1-4.56.9-8.13,5.11-8.14s7.89,3.51,9,8.11-.87,8.13-5.11,8.13S1551.16,1391.5,1550,1386.91Zm10.53,0c-.69-2.85-2.62-5-4.71-5s-2.94,2.09-2.23,5,2.59,5,4.7,5S1561.27,1389.78,1560.57,1386.89Z" style="fill: #f99746"/>
      <path d="M1572.75,1382.4l-2.6.68-1.41-2.83,4.23-1.35h2.39l3.82,15.81h-3.44Z" style="fill: #f99746"/>
      <path d="M1529,1386.94c-1.1-4.55.89-8.12,5.11-8.13s7.88,3.51,9,8.11-.87,8.12-5.11,8.13S1530.06,1391.54,1529,1386.94Zm10.52,0c-.68-2.85-2.61-5-4.7-5s-2.94,2.09-2.24,5,2.6,5,4.71,5S1540.18,1389.82,1539.47,1386.92Z" style="fill: #2f539b"/>
      <path d="M1585.13,1386.85c-1.1-4.56.89-8.13,5.11-8.14s7.88,3.51,9,8.11-.87,8.13-5.11,8.14S1586.24,1391.45,1585.13,1386.85Zm10.52,0c-.69-2.85-2.61-5-4.7-5s-2.94,2.09-2.24,5,2.6,5,4.71,5S1596.36,1389.72,1595.65,1386.83Z" style="fill: #2f539b"/>
      <path d="M1606.22,1386.81c-1.1-4.55.89-8.12,5.11-8.13s7.89,3.51,9,8.11-.87,8.12-5.11,8.13S1607.34,1391.41,1606.22,1386.81Zm10.53,0c-.69-2.85-2.62-5-4.71-5s-2.94,2.09-2.23,5,2.59,5,4.7,5S1617.45,1389.69,1616.75,1386.79Z" style="fill: #2f539b"/>
      <path d="M1678.8,1386.91c-1.1-4.56.89-8.13,5.11-8.14s7.88,3.51,9,8.11-.87,8.13-5.11,8.13S1679.91,1391.5,1678.8,1386.91Zm10.52,0c-.69-2.85-2.61-5-4.7-5s-2.94,2.09-2.24,5,2.6,5,4.71,5S1690,1389.78,1689.32,1386.89Z" style="fill: #f99746"/>
      <path d="M1701.51,1382.4l-2.6.68-1.41-2.83,4.23-1.35h2.38l3.83,15.81h-3.45Z" style="fill: #f99746"/>
      <path d="M1657.71,1386.94c-1.11-4.55.89-8.12,5.11-8.13s7.88,3.51,9,8.11-.87,8.12-5.11,8.13S1658.82,1391.54,1657.71,1386.94Zm10.52,0c-.69-2.85-2.62-5-4.7-5s-3,2.09-2.24,5,2.59,5,4.7,5S1668.93,1389.82,1668.23,1386.92Z" style="fill: #2f539b"/>
      <path d="M1713.89,1386.85c-1.11-4.56.89-8.13,5.11-8.14s7.88,3.51,9,8.11-.87,8.13-5.11,8.14S1715,1391.45,1713.89,1386.85Zm10.52,0c-.69-2.85-2.62-5-4.7-5s-3,2.09-2.24,5,2.59,5,4.7,5S1725.11,1389.72,1724.41,1386.83Z" style="fill: #2f539b"/>
      <path d="M1735,1386.81c-1.1-4.55.89-8.12,5.11-8.13s7.88,3.51,9,8.11-.86,8.12-5.1,8.13S1736.09,1391.41,1735,1386.81Zm10.52,0c-.69-2.85-2.62-5-4.7-5s-2.94,2.09-2.24,5,2.6,5,4.71,5S1746.2,1389.69,1745.5,1386.79Z" style="fill: #2f539b"/>
      <path d="M1197.29,1358.74c-1.1-4.55.9-8.13,5.12-8.13s7.88,3.51,9,8.11-.87,8.12-5.11,8.13S1198.41,1363.34,1197.29,1358.74Zm10.53,0c-.69-2.85-2.62-5-4.71-5s-2.94,2.1-2.23,5,2.59,5,4.7,5S1208.52,1361.62,1207.82,1358.72Z" style="fill: #2f539b"/>
      <path d="M1218.39,1358.7c-1.1-4.55.89-8.12,5.11-8.13s7.88,3.51,9,8.11-.87,8.13-5.12,8.13S1219.5,1363.3,1218.39,1358.7Zm10.52,0c-.69-2.85-2.62-5-4.7-5s-2.94,2.09-2.24,5,2.6,5,4.71,5S1229.61,1361.58,1228.91,1358.69Z" style="fill: #2f539b"/>
      <path d="M1604,1358.74c-1.1-4.55.89-8.13,5.11-8.13s7.88,3.51,9,8.11-.87,8.12-5.11,8.13S1605.08,1363.34,1604,1358.74Zm10.52,0c-.69-2.85-2.61-5-4.7-5s-2.94,2.1-2.24,5,2.6,5,4.71,5S1615.19,1361.62,1614.49,1358.72Z" style="fill: #2f539b"/>
      <path d="M1625.06,1358.7c-1.1-4.55.89-8.12,5.11-8.13s7.89,3.51,9,8.11-.87,8.13-5.11,8.13S1626.18,1363.3,1625.06,1358.7Zm10.53,0c-.69-2.85-2.62-5-4.71-5s-2.94,2.09-2.23,5,2.59,5,4.7,5S1636.29,1361.58,1635.59,1358.69Z" style="fill: #2f539b"/>
    </g>
  </g>
</svg>
