<?xml version="1.0" encoding="utf-8"?>
<!-- Generator: Adobe Illustrator 23.0.0, SVG Export Plug-In . SVG Version: 6.00 Build 0)  -->
<svg version="1.1" xmlns="http://www.w3.org/2000/svg" xmlns:xlink="http://www.w3.org/1999/xlink" x="0px" y="0px"
	 viewBox="0 0 150 150" style="enable-background:new 0 0 150 150;" xml:space="preserve">
<style type="text/css">
	.st0{fill-rule:evenodd;clip-rule:evenodd;fill:#EE3E28;}
	.st1{fill:#C74634;}
</style>
<g id="Layer_1">
	<path class="st0" d="M105.8,13H45.2C21.6,13,6,32.7,6,57s15.6,44,39.2,44h60.6c23.6,0,39.2-19.7,39.2-44S129.4,13,105.8,13
		L105.8,13z M105.8,86.7H45.2C29.3,86.7,20,73.4,20,57s9.3-29.7,25.2-29.7h60.6c15.9,0,25.2,13.3,25.2,29.7
		C131.1,73.4,121.7,86.7,105.8,86.7L105.8,86.7z"/>
</g>
<g id="Layer_2">
	<path class="st1" d="M65.7,130H75l-4.9-7.9l-9,14.3H57L68,119.3c0.8-1.2,2.4-1.5,3.6-0.6c0.2,0.2,0.5,0.4,0.6,0.6l11,17.1h-4.1
		l-1.9-3.2h-9.4L65.7,130 M108.2,133.2v-14.9h-3.5v16.3c0,0.5,0.2,0.9,0.5,1.2c0.3,0.3,0.8,0.5,1.3,0.5h15.8l2.1-3.2L108.2,133.2
		 M50.8,130.5c3.4,0,6.1-2.7,6.1-6.1s-2.7-6.1-6.1-6.1H35.6v18.1h3.5v-14.9h11.5c1.6,0,2.9,1.3,2.9,2.9s-1.3,2.9-2.9,2.9h-9.8
		l10.4,9h5l-7-5.8H50.8 M14.3,136.4h10.5c5-0.1,8.9-4.3,8.8-9.3c-0.1-4.8-4-8.7-8.8-8.8H14.3c-5-0.1-9.1,3.8-9.3,8.8
		c-0.1,5,3.8,9.1,8.8,9.3C13.9,136.4,14.1,136.4,14.3,136.4 M24.5,133.2h-10c-3.2-0.1-5.8-2.8-5.7-6c0.1-3.1,2.6-5.6,5.7-5.7h10
		c3.2-0.1,5.9,2.4,6,5.7c0.1,3.2-2.4,5.9-5.7,6C24.8,133.2,24.6,133.2,24.5,133.2 M90.4,136.4h10.7l2-3.2H90.7
		c-3.2,0.1-5.9-2.4-6-5.7c-0.1-3.2,2.4-5.9,5.7-6c0.1,0,0.3,0,0.4,0h10.2l2.1-3.2H90.4c-5-0.1-9.1,3.8-9.3,8.8
		c-0.1,5,3.8,9.1,8.8,9.3C90.1,136.4,90.3,136.4,90.4,136.4 M132.9,133.2c-2.6,0-4.9-1.7-5.6-4.3h14.8l2-3.2h-16.9
		c0.7-2.5,3-4.3,5.6-4.3h10.2l2-3.2h-12.5c-5,0.1-8.9,4.3-8.8,9.3c0.1,4.8,4,8.7,8.8,8.8h10.7l2-3.2L132.9,133.2"/>
</g>
</svg>
