<?xml version="1.0" encoding="utf-8"?>
<!-- Generator: Adobe Illustrator 23.0.0, SVG Export Plug-In . SVG Version: 6.00 Build 0)  -->
<svg version="1.1" id="Layer_1" xmlns="http://www.w3.org/2000/svg" xmlns:xlink="http://www.w3.org/1999/xlink" x="0px" y="0px"
	 viewBox="0 0 192 327" style="enable-background:new 0 0 192 327;" xml:space="preserve">
<g id="Page-1">
	<path id="Path" d="M112.8,2.4c-3,3-3.2,6.4-0.4,9.9c4.1,5.3,10.9,2.3,10.9-4.7S117.4-2.3,112.8,2.4z"/>
	<path d="M61.9,20.5C58,24.4,59.1,31.1,64,33c5.9,2.2,11.2-7.3,6.7-12.2C68.6,18.5,64,18.3,61.9,20.5z"/>
	<path d="M112.5,29.5c-2.2,1.5-2.2,1.7-2.2,30.7c0,32.4-0.2,33.7-6,33.7c-5.5,0-6-1.6-6-18.6c0-15.3,0-15.5-2.6-18
		c-1.9-2-3.1-2.4-5.2-1.9c-5.3,1.3-5.2,0.5-5.2,34v31.2l5.6-2.9c4.7-2.3,7-2.8,13-2.8c14.1,0,24.6,8.3,28,22.2c1.5,5.9,1.5,7,0,12.8
		c-2.7,10.4-10.3,18.5-20,21.1c-6.4,1.7-15.6,0.7-21.5-2.3l-5.1-2.7v14.5c0,14.1-0.1,14.6-2.5,16.9c-1.3,1.4-3.1,2.5-4,2.5
		s-2.7-1.1-4-2.5l-2.5-2.4v-73.9V47.2l-2.5-1.1c-2.7-1.2-5-0.8-7.7,1.6c-1.4,1.1-1.8,3.1-1.8,7.9v6.3H48.8H37.2l-1.8,4.2
		c-1.8,4.4-17.3,59.3-21.3,75.3c-1.7,7.1-2.1,11.9-2.1,23c0,16.3,1.9,25,8.2,38c9,18.7,21.7,30.8,44.7,42.3
		c12.5,6.3,15.3,8.6,18.8,15.7c3.7,7.6,5.3,15.8,6.7,34.8c1,13.3,0.9,16.1-0.2,17.1c-0.8,0.7-10.4,4.1-21.4,7.5
		c-11,3.5-20.2,6.5-20.4,6.7c-0.2,0.2,20.9,0.4,47,0.3c28,0,46.4-0.4,44.9-0.9c-1.4-0.5-11.2-3.7-21.9-7L99,312.7l0.6-14.2
		c0.7-16.6,1.9-24.8,4.9-33.4c3.4-9.7,7-13.1,21.4-20.4c27-13.6,42.4-29.8,49.4-52.3c3.2-10,3.8-28.4,1.5-43
		c-3.2-20.7-20.9-83.9-24.2-86.2c-1.1-0.9-6-1.3-15.5-1.3h-13.8v-15c0-13.7-0.2-15.2-2-17C118.9,27.5,115.6,27.3,112.5,29.5z"/>
	<path d="M87,30.7c-2.3,2.5-2.2,8.5,0.1,10.5c1.9,1.8,5.9,2.2,7.8,0.9c2-1.3,3.6-5.4,3-7.7C96.6,29.1,90.3,27,87,30.7z"/>
	<path d="M96.3,130.1c-5.5,3.8-7.5,7.3-7.5,13.3c0,8.5,5.6,14.5,14.2,15.2c9.1,0.7,16.3-6.2,16.3-15.7
		C119.3,131.3,105.6,123.8,96.3,130.1z"/>
</g>
</svg>
